<?xml version="1.0" encoding="UTF-8" standalone="no"?>
<!DOCTYPE svg PUBLIC "-//W3C//DTD SVG 1.0//EN"
 "http://www.w3.org/TR/2001/REC-SVG-20010904/DTD/svg10.dtd" [
 <!ATTLIST svg xmlns:xlink CDATA #FIXED "http://www.w3.org/1999/xlink">
]>
<!-- Generated by dot version 2.6 (Sun Aug 28 13:14:52 UTC 2005)
     For user: Bill Gates -->
<!-- Title: _anonymous_0 Pages: 1 -->
<svg width="1572pt" height="168pt"
 viewBox = "0 0 1572 168"
 xmlns="http://www.w3.org/2000/svg" xmlns:xlink="http://www.w3.org/1999/xlink">
<g id="graph0" class="graph" style="font-family:Times-Roman;font-size:14.00;">
<title>_anonymous_0</title>
<!-- free -->
<g id="node1" class="node"><title>free</title>
<polyline style="fill:none;stroke:black;" points="22,163 36,163 "/>
<path style="fill:none;stroke:black;" d="M36,163C42,163 48,157 48,151"/>
<polyline style="fill:none;stroke:black;" points="48,151 48,139 "/>
<path style="fill:none;stroke:black;" d="M48,139C48,133 42,127 36,127"/>
<polyline style="fill:none;stroke:black;" points="36,127 22,127 "/>
<path style="fill:none;stroke:black;" d="M22,127C16,127 10,133 10,139"/>
<polyline style="fill:none;stroke:black;" points="10,139 10,152 "/>
<path style="fill:none;stroke:black;" d="M10,152C10,157 16,163 22,163"/>
<text text-anchor="middle" x="29" y="150">free</text>
</g>
<!-- struct0 -->
<g id="node2" class="node"><title>struct0</title>
<polyline style="fill:none;stroke:black;" points="17,109 41,109 "/>
<path style="fill:none;stroke:black;" d="M41,109C47,109 53,103 53,97"/>
<polyline style="fill:none;stroke:black;" points="53,97 53,49 "/>
<path style="fill:none;stroke:black;" d="M53,49C53,43 47,37 41,37"/>
<polyline style="fill:none;stroke:black;" points="41,37 17,37 "/>
<path style="fill:none;stroke:black;" d="M17,37C11,37 5,43 5,49"/>
<polyline style="fill:none;stroke:black;" points="5,49 5,97 "/>
<path style="fill:none;stroke:black;" d="M5,97C5,103 11,109 17,109"/>
<text text-anchor="middle" x="29" y="54">0</text>
<polyline style="fill:none;stroke:black;" points="5,61 53,61 "/>
<text text-anchor="middle" x="29" y="78">0</text>
<polyline style="fill:none;stroke:black;" points="5,85 53,85 "/>
<text text-anchor="middle" x="17" y="102">0</text>
<polyline style="fill:none;stroke:black;" points="29,109 29,85 "/>
<text text-anchor="middle" x="41" y="102">0</text>
</g>
<!-- struct1 -->
<g id="node3" class="node"><title>struct1</title>
<polyline style="fill:none;stroke:black;" points="101,77 125,77 "/>
<path style="fill:none;stroke:black;" d="M125,77C131,77 137,71 137,65"/>
<polyline style="fill:none;stroke:black;" points="137,65 137,17 "/>
<path style="fill:none;stroke:black;" d="M137,17C137,11 131,5 125,5"/>
<polyline style="fill:none;stroke:black;" points="125,5 101,5 "/>
<path style="fill:none;stroke:black;" d="M101,5C95,5 89,11 89,17"/>
<polyline style="fill:none;stroke:black;" points="89,17 89,65 "/>
<path style="fill:none;stroke:black;" d="M89,65C89,71 95,77 101,77"/>
<text text-anchor="middle" x="113" y="22">1</text>
<polyline style="fill:none;stroke:black;" points="89,29 137,29 "/>
<text text-anchor="middle" x="113" y="46">10</text>
<polyline style="fill:none;stroke:black;" points="89,53 137,53 "/>
<text text-anchor="middle" x="101" y="70">0</text>
<polyline style="fill:none;stroke:black;" points="113,77 113,53 "/>
<text text-anchor="middle" x="125" y="70">2</text>
</g>
<!-- struct0&#45;&gt;struct1 -->
<g id="edge2" class="edge"><title>struct0&#45;&gt;struct1</title>
<path style="fill:none;stroke:white;" d="M62,60C68,57 74,55 79,53"/>
<polygon style="fill:white;stroke:white;" points="64,63 53,64 61,57 64,63"/>
<polygon style="fill:white;stroke:white;" points="78,50 89,50 80,56 78,50"/>
</g>
<!-- struct2 -->
<g id="node4" class="node"><title>struct2</title>
<polyline style="fill:none;stroke:black;" points="185,77 209,77 "/>
<path style="fill:none;stroke:black;" d="M209,77C215,77 221,71 221,65"/>
<polyline style="fill:none;stroke:black;" points="221,65 221,17 "/>
<path style="fill:none;stroke:black;" d="M221,17C221,11 215,5 209,5"/>
<polyline style="fill:none;stroke:black;" points="209,5 185,5 "/>
<path style="fill:none;stroke:black;" d="M185,5C179,5 173,11 173,17"/>
<polyline style="fill:none;stroke:black;" points="173,17 173,65 "/>
<path style="fill:none;stroke:black;" d="M173,65C173,71 179,77 185,77"/>
<text text-anchor="middle" x="197" y="22">2</text>
<polyline style="fill:none;stroke:black;" points="173,29 221,29 "/>
<text text-anchor="middle" x="197" y="46">20</text>
<polyline style="fill:none;stroke:black;" points="173,53 221,53 "/>
<text text-anchor="middle" x="185" y="70">1</text>
<polyline style="fill:none;stroke:black;" points="197,77 197,53 "/>
<text text-anchor="middle" x="209" y="70">3</text>
</g>
<!-- struct1&#45;&gt;struct2 -->
<g id="edge3" class="edge"><title>struct1&#45;&gt;struct2</title>
<path style="fill:none;stroke:white;" d="M147,48C152,48 158,48 163,48"/>
<polygon style="fill:white;stroke:white;" points="147,51 137,47 147,45 147,51"/>
<polygon style="fill:white;stroke:white;" points="163,45 173,47 163,51 163,45"/>
</g>
<!-- struct1&#45;&gt;struct2 -->
<g id="edge20" class="edge"><title>struct1&#45;&gt;struct2</title>
<path style="fill:none;stroke:blue;" d="M147,34C152,34 158,34 163,34"/>
<polygon style="fill:blue;stroke:blue;" points="147,37 137,35 147,31 147,37"/>
<polygon style="fill:blue;stroke:blue;" points="163,31 173,35 163,37 163,31"/>
</g>
<!-- struct3 -->
<g id="node5" class="node"><title>struct3</title>
<polyline style="fill:none;stroke:black;" points="269,77 293,77 "/>
<path style="fill:none;stroke:black;" d="M293,77C299,77 305,71 305,65"/>
<polyline style="fill:none;stroke:black;" points="305,65 305,17 "/>
<path style="fill:none;stroke:black;" d="M305,17C305,11 299,5 293,5"/>
<polyline style="fill:none;stroke:black;" points="293,5 269,5 "/>
<path style="fill:none;stroke:black;" d="M269,5C263,5 257,11 257,17"/>
<polyline style="fill:none;stroke:black;" points="257,17 257,65 "/>
<path style="fill:none;stroke:black;" d="M257,65C257,71 263,77 269,77"/>
<text text-anchor="middle" x="281" y="22">3</text>
<polyline style="fill:none;stroke:black;" points="257,29 305,29 "/>
<text text-anchor="middle" x="281" y="46">30</text>
<polyline style="fill:none;stroke:black;" points="257,53 305,53 "/>
<text text-anchor="middle" x="269" y="70">2</text>
<polyline style="fill:none;stroke:black;" points="281,77 281,53 "/>
<text text-anchor="middle" x="293" y="70">4</text>
</g>
<!-- struct2&#45;&gt;struct3 -->
<g id="edge21" class="edge"><title>struct2&#45;&gt;struct3</title>
<path style="fill:none;stroke:blue;" d="M231,48C236,48 242,48 247,48"/>
<polygon style="fill:blue;stroke:blue;" points="231,51 221,47 231,45 231,51"/>
<polygon style="fill:blue;stroke:blue;" points="247,45 257,47 247,51 247,45"/>
</g>
<!-- struct2&#45;&gt;struct3 -->
<g id="edge4" class="edge"><title>struct2&#45;&gt;struct3</title>
<path style="fill:none;stroke:white;" d="M231,34C236,34 242,34 247,34"/>
<polygon style="fill:white;stroke:white;" points="231,37 221,35 231,31 231,37"/>
<polygon style="fill:white;stroke:white;" points="247,31 257,35 247,37 247,31"/>
</g>
<!-- struct4 -->
<g id="node6" class="node"><title>struct4</title>
<polyline style="fill:none;stroke:black;" points="353,77 377,77 "/>
<path style="fill:none;stroke:black;" d="M377,77C383,77 389,71 389,65"/>
<polyline style="fill:none;stroke:black;" points="389,65 389,17 "/>
<path style="fill:none;stroke:black;" d="M389,17C389,11 383,5 377,5"/>
<polyline style="fill:none;stroke:black;" points="377,5 353,5 "/>
<path style="fill:none;stroke:black;" d="M353,5C347,5 341,11 341,17"/>
<polyline style="fill:none;stroke:black;" points="341,17 341,65 "/>
<path style="fill:none;stroke:black;" d="M341,65C341,71 347,77 353,77"/>
<text text-anchor="middle" x="365" y="22">4</text>
<polyline style="fill:none;stroke:black;" points="341,29 389,29 "/>
<text text-anchor="middle" x="365" y="46">40</text>
<polyline style="fill:none;stroke:black;" points="341,53 389,53 "/>
<text text-anchor="middle" x="353" y="70">3</text>
<polyline style="fill:none;stroke:black;" points="365,77 365,53 "/>
<text text-anchor="middle" x="377" y="70">5</text>
</g>
<!-- struct3&#45;&gt;struct4 -->
<g id="edge22" class="edge"><title>struct3&#45;&gt;struct4</title>
<path style="fill:none;stroke:blue;" d="M315,48C320,48 326,48 331,48"/>
<polygon style="fill:blue;stroke:blue;" points="315,51 305,47 315,45 315,51"/>
<polygon style="fill:blue;stroke:blue;" points="331,45 341,47 331,51 331,45"/>
</g>
<!-- struct3&#45;&gt;struct4 -->
<g id="edge5" class="edge"><title>struct3&#45;&gt;struct4</title>
<path style="fill:none;stroke:white;" d="M315,34C320,34 326,34 331,34"/>
<polygon style="fill:white;stroke:white;" points="315,37 305,35 315,31 315,37"/>
<polygon style="fill:white;stroke:white;" points="331,31 341,35 331,37 331,31"/>
</g>
<!-- struct5 -->
<g id="node7" class="node"><title>struct5</title>
<polyline style="fill:none;stroke:black;" points="437,77 461,77 "/>
<path style="fill:none;stroke:black;" d="M461,77C467,77 473,71 473,65"/>
<polyline style="fill:none;stroke:black;" points="473,65 473,17 "/>
<path style="fill:none;stroke:black;" d="M473,17C473,11 467,5 461,5"/>
<polyline style="fill:none;stroke:black;" points="461,5 437,5 "/>
<path style="fill:none;stroke:black;" d="M437,5C431,5 425,11 425,17"/>
<polyline style="fill:none;stroke:black;" points="425,17 425,65 "/>
<path style="fill:none;stroke:black;" d="M425,65C425,71 431,77 437,77"/>
<text text-anchor="middle" x="449" y="22">5</text>
<polyline style="fill:none;stroke:black;" points="425,29 473,29 "/>
<text text-anchor="middle" x="449" y="46">50</text>
<polyline style="fill:none;stroke:black;" points="425,53 473,53 "/>
<text text-anchor="middle" x="437" y="70">4</text>
<polyline style="fill:none;stroke:black;" points="449,77 449,53 "/>
<text text-anchor="middle" x="461" y="70">6</text>
</g>
<!-- struct4&#45;&gt;struct5 -->
<g id="edge23" class="edge"><title>struct4&#45;&gt;struct5</title>
<path style="fill:none;stroke:blue;" d="M399,48C404,48 410,48 415,48"/>
<polygon style="fill:blue;stroke:blue;" points="399,51 389,47 399,45 399,51"/>
<polygon style="fill:blue;stroke:blue;" points="415,45 425,47 415,51 415,45"/>
</g>
<!-- struct4&#45;&gt;struct5 -->
<g id="edge6" class="edge"><title>struct4&#45;&gt;struct5</title>
<path style="fill:none;stroke:white;" d="M399,34C404,34 410,34 415,34"/>
<polygon style="fill:white;stroke:white;" points="399,37 389,35 399,31 399,37"/>
<polygon style="fill:white;stroke:white;" points="415,31 425,35 415,37 415,31"/>
</g>
<!-- struct6 -->
<g id="node8" class="node"><title>struct6</title>
<polyline style="fill:none;stroke:black;" points="521,77 545,77 "/>
<path style="fill:none;stroke:black;" d="M545,77C551,77 557,71 557,65"/>
<polyline style="fill:none;stroke:black;" points="557,65 557,17 "/>
<path style="fill:none;stroke:black;" d="M557,17C557,11 551,5 545,5"/>
<polyline style="fill:none;stroke:black;" points="545,5 521,5 "/>
<path style="fill:none;stroke:black;" d="M521,5C515,5 509,11 509,17"/>
<polyline style="fill:none;stroke:black;" points="509,17 509,65 "/>
<path style="fill:none;stroke:black;" d="M509,65C509,71 515,77 521,77"/>
<text text-anchor="middle" x="533" y="22">6</text>
<polyline style="fill:none;stroke:black;" points="509,29 557,29 "/>
<text text-anchor="middle" x="533" y="46">60</text>
<polyline style="fill:none;stroke:black;" points="509,53 557,53 "/>
<text text-anchor="middle" x="521" y="70">5</text>
<polyline style="fill:none;stroke:black;" points="533,77 533,53 "/>
<text text-anchor="middle" x="545" y="70">7</text>
</g>
<!-- struct5&#45;&gt;struct6 -->
<g id="edge24" class="edge"><title>struct5&#45;&gt;struct6</title>
<path style="fill:none;stroke:blue;" d="M483,48C488,48 494,48 499,48"/>
<polygon style="fill:blue;stroke:blue;" points="483,51 473,47 483,45 483,51"/>
<polygon style="fill:blue;stroke:blue;" points="499,45 509,47 499,51 499,45"/>
</g>
<!-- struct5&#45;&gt;struct6 -->
<g id="edge7" class="edge"><title>struct5&#45;&gt;struct6</title>
<path style="fill:none;stroke:white;" d="M483,34C488,34 494,34 499,34"/>
<polygon style="fill:white;stroke:white;" points="483,37 473,35 483,31 483,37"/>
<polygon style="fill:white;stroke:white;" points="499,31 509,35 499,37 499,31"/>
</g>
<!-- struct7 -->
<g id="node9" class="node"><title>struct7</title>
<polyline style="fill:none;stroke:black;" points="605,77 629,77 "/>
<path style="fill:none;stroke:black;" d="M629,77C635,77 641,71 641,65"/>
<polyline style="fill:none;stroke:black;" points="641,65 641,17 "/>
<path style="fill:none;stroke:black;" d="M641,17C641,11 635,5 629,5"/>
<polyline style="fill:none;stroke:black;" points="629,5 605,5 "/>
<path style="fill:none;stroke:black;" d="M605,5C599,5 593,11 593,17"/>
<polyline style="fill:none;stroke:black;" points="593,17 593,65 "/>
<path style="fill:none;stroke:black;" d="M593,65C593,71 599,77 605,77"/>
<text text-anchor="middle" x="617" y="22">7</text>
<polyline style="fill:none;stroke:black;" points="593,29 641,29 "/>
<text text-anchor="middle" x="617" y="46">70</text>
<polyline style="fill:none;stroke:black;" points="593,53 641,53 "/>
<text text-anchor="middle" x="605" y="70">6</text>
<polyline style="fill:none;stroke:black;" points="617,77 617,53 "/>
<text text-anchor="middle" x="629" y="70">8</text>
</g>
<!-- struct6&#45;&gt;struct7 -->
<g id="edge25" class="edge"><title>struct6&#45;&gt;struct7</title>
<path style="fill:none;stroke:blue;" d="M567,48C572,48 578,48 583,48"/>
<polygon style="fill:blue;stroke:blue;" points="567,51 557,47 567,45 567,51"/>
<polygon style="fill:blue;stroke:blue;" points="583,45 593,47 583,51 583,45"/>
</g>
<!-- struct6&#45;&gt;struct7 -->
<g id="edge8" class="edge"><title>struct6&#45;&gt;struct7</title>
<path style="fill:none;stroke:white;" d="M567,34C572,34 578,34 583,34"/>
<polygon style="fill:white;stroke:white;" points="567,37 557,35 567,31 567,37"/>
<polygon style="fill:white;stroke:white;" points="583,31 593,35 583,37 583,31"/>
</g>
<!-- struct8 -->
<g id="node10" class="node"><title>struct8</title>
<polyline style="fill:none;stroke:black;" points="689,77 713,77 "/>
<path style="fill:none;stroke:black;" d="M713,77C719,77 725,71 725,65"/>
<polyline style="fill:none;stroke:black;" points="725,65 725,17 "/>
<path style="fill:none;stroke:black;" d="M725,17C725,11 719,5 713,5"/>
<polyline style="fill:none;stroke:black;" points="713,5 689,5 "/>
<path style="fill:none;stroke:black;" d="M689,5C683,5 677,11 677,17"/>
<polyline style="fill:none;stroke:black;" points="677,17 677,65 "/>
<path style="fill:none;stroke:black;" d="M677,65C677,71 683,77 689,77"/>
<text text-anchor="middle" x="701" y="22">8</text>
<polyline style="fill:none;stroke:black;" points="677,29 725,29 "/>
<text text-anchor="middle" x="701" y="46">80</text>
<polyline style="fill:none;stroke:black;" points="677,53 725,53 "/>
<text text-anchor="middle" x="689" y="70">7</text>
<polyline style="fill:none;stroke:black;" points="701,77 701,53 "/>
<text text-anchor="middle" x="713" y="70">9</text>
</g>
<!-- struct7&#45;&gt;struct8 -->
<g id="edge26" class="edge"><title>struct7&#45;&gt;struct8</title>
<path style="fill:none;stroke:blue;" d="M651,48C656,48 662,48 667,48"/>
<polygon style="fill:blue;stroke:blue;" points="651,51 641,47 651,45 651,51"/>
<polygon style="fill:blue;stroke:blue;" points="667,45 677,47 667,51 667,45"/>
</g>
<!-- struct7&#45;&gt;struct8 -->
<g id="edge9" class="edge"><title>struct7&#45;&gt;struct8</title>
<path style="fill:none;stroke:white;" d="M651,34C656,34 662,34 667,34"/>
<polygon style="fill:white;stroke:white;" points="651,37 641,35 651,31 651,37"/>
<polygon style="fill:white;stroke:white;" points="667,31 677,35 667,37 667,31"/>
</g>
<!-- struct9 -->
<g id="node11" class="node"><title>struct9</title>
<polyline style="fill:none;stroke:black;" points="773,77 797,77 "/>
<path style="fill:none;stroke:black;" d="M797,77C803,77 809,71 809,65"/>
<polyline style="fill:none;stroke:black;" points="809,65 809,17 "/>
<path style="fill:none;stroke:black;" d="M809,17C809,11 803,5 797,5"/>
<polyline style="fill:none;stroke:black;" points="797,5 773,5 "/>
<path style="fill:none;stroke:black;" d="M773,5C767,5 761,11 761,17"/>
<polyline style="fill:none;stroke:black;" points="761,17 761,65 "/>
<path style="fill:none;stroke:black;" d="M761,65C761,71 767,77 773,77"/>
<text text-anchor="middle" x="785" y="22">9</text>
<polyline style="fill:none;stroke:black;" points="761,29 809,29 "/>
<text text-anchor="middle" x="785" y="46">90</text>
<polyline style="fill:none;stroke:black;" points="761,53 809,53 "/>
<text text-anchor="middle" x="773" y="70">8</text>
<polyline style="fill:none;stroke:black;" points="785,77 785,53 "/>
<text text-anchor="middle" x="797" y="70">0</text>
</g>
<!-- struct8&#45;&gt;struct9 -->
<g id="edge27" class="edge"><title>struct8&#45;&gt;struct9</title>
<path style="fill:none;stroke:blue;" d="M735,48C740,48 746,48 751,48"/>
<polygon style="fill:blue;stroke:blue;" points="735,51 725,47 735,45 735,51"/>
<polygon style="fill:blue;stroke:blue;" points="751,45 761,47 751,51 751,45"/>
</g>
<!-- struct8&#45;&gt;struct9 -->
<g id="edge10" class="edge"><title>struct8&#45;&gt;struct9</title>
<path style="fill:none;stroke:white;" d="M735,34C740,34 746,34 751,34"/>
<polygon style="fill:white;stroke:white;" points="735,37 725,35 735,31 735,37"/>
<polygon style="fill:white;stroke:white;" points="751,31 761,35 751,37 751,31"/>
</g>
<!-- struct10 -->
<g id="node12" class="node"><title>struct10</title>
<polyline style="fill:none;stroke:black;" points="857,77 891,77 "/>
<path style="fill:none;stroke:black;" d="M891,77C897,77 903,71 903,65"/>
<polyline style="fill:none;stroke:black;" points="903,65 903,17 "/>
<path style="fill:none;stroke:black;" d="M903,17C903,11 897,5 891,5"/>
<polyline style="fill:none;stroke:black;" points="891,5 857,5 "/>
<path style="fill:none;stroke:black;" d="M857,5C851,5 845,11 845,17"/>
<polyline style="fill:none;stroke:black;" points="845,17 845,65 "/>
<path style="fill:none;stroke:black;" d="M845,65C845,71 851,77 857,77"/>
<text text-anchor="middle" x="874" y="22">10</text>
<polyline style="fill:none;stroke:black;" points="845,29 903,29 "/>
<text text-anchor="middle" x="874" y="46">P</text>
<polyline style="fill:none;stroke:black;" points="845,53 903,53 "/>
<text text-anchor="middle" x="859" y="70">&#45;1</text>
<polyline style="fill:none;stroke:black;" points="873,77 873,53 "/>
<text text-anchor="middle" x="888" y="70">11</text>
</g>
<!-- struct9&#45;&gt;struct10 -->
<g id="edge11" class="edge"><title>struct9&#45;&gt;struct10</title>
<path style="fill:none;stroke:white;" d="M819,41C824,41 830,41 835,41"/>
<polygon style="fill:white;stroke:white;" points="819,44 809,41 819,37 819,44"/>
<polygon style="fill:white;stroke:white;" points="835,37 845,41 835,44 835,37"/>
</g>
<!-- struct11 -->
<g id="node13" class="node"><title>struct11</title>
<polyline style="fill:none;stroke:black;" points="952,77 987,77 "/>
<path style="fill:none;stroke:black;" d="M987,77C993,77 999,71 999,65"/>
<polyline style="fill:none;stroke:black;" points="999,65 999,17 "/>
<path style="fill:none;stroke:black;" d="M999,17C999,11 993,5 987,5"/>
<polyline style="fill:none;stroke:black;" points="987,5 952,5 "/>
<path style="fill:none;stroke:black;" d="M952,5C946,5 940,11 940,17"/>
<polyline style="fill:none;stroke:black;" points="940,17 940,65 "/>
<path style="fill:none;stroke:black;" d="M940,65C940,71 946,77 952,77"/>
<text text-anchor="middle" x="969" y="22">11</text>
<polyline style="fill:none;stroke:black;" points="940,29 999,29 "/>
<text text-anchor="middle" x="969" y="46">P</text>
<polyline style="fill:none;stroke:black;" points="940,53 999,53 "/>
<text text-anchor="middle" x="954" y="70">&#45;1</text>
<polyline style="fill:none;stroke:black;" points="968,77 968,53 "/>
<text text-anchor="middle" x="983" y="70">12</text>
</g>
<!-- struct10&#45;&gt;struct11 -->
<g id="edge12" class="edge"><title>struct10&#45;&gt;struct11</title>
<path style="fill:none;stroke:white;" d="M913,48C919,48 924,48 930,48"/>
<polygon style="fill:white;stroke:white;" points="913,51 903,47 913,45 913,51"/>
<polygon style="fill:white;stroke:white;" points="930,45 940,47 930,51 930,45"/>
</g>
<!-- struct10&#45;&gt;struct11 -->
<g id="edge29" class="edge"><title>struct10&#45;&gt;struct11</title>
<path style="fill:none;stroke:gold;" d="M903,35C912,34 921,34 930,34"/>
<polygon style="fill:gold;stroke:gold;" points="930,31 940,35 930,37 930,31"/>
</g>
<!-- struct12 -->
<g id="node14" class="node"><title>struct12</title>
<polyline style="fill:none;stroke:black;" points="1048,77 1083,77 "/>
<path style="fill:none;stroke:black;" d="M1083,77C1089,77 1095,71 1095,65"/>
<polyline style="fill:none;stroke:black;" points="1095,65 1095,17 "/>
<path style="fill:none;stroke:black;" d="M1095,17C1095,11 1089,5 1083,5"/>
<polyline style="fill:none;stroke:black;" points="1083,5 1048,5 "/>
<path style="fill:none;stroke:black;" d="M1048,5C1042,5 1036,11 1036,17"/>
<polyline style="fill:none;stroke:black;" points="1036,17 1036,65 "/>
<path style="fill:none;stroke:black;" d="M1036,65C1036,71 1042,77 1048,77"/>
<text text-anchor="middle" x="1065" y="22">12</text>
<polyline style="fill:none;stroke:black;" points="1036,29 1095,29 "/>
<text text-anchor="middle" x="1065" y="46">P</text>
<polyline style="fill:none;stroke:black;" points="1036,53 1095,53 "/>
<text text-anchor="middle" x="1050" y="70">&#45;1</text>
<polyline style="fill:none;stroke:black;" points="1064,77 1064,53 "/>
<text text-anchor="middle" x="1079" y="70">13</text>
</g>
<!-- struct11&#45;&gt;struct12 -->
<g id="edge13" class="edge"><title>struct11&#45;&gt;struct12</title>
<path style="fill:none;stroke:white;" d="M1009,48C1015,48 1020,48 1026,48"/>
<polygon style="fill:white;stroke:white;" points="1009,51 999,47 1009,45 1009,51"/>
<polygon style="fill:white;stroke:white;" points="1026,45 1036,47 1026,51 1026,45"/>
</g>
<!-- struct11&#45;&gt;struct12 -->
<g id="edge30" class="edge"><title>struct11&#45;&gt;struct12</title>
<path style="fill:none;stroke:gold;" d="M999,35C1008,34 1017,34 1026,34"/>
<polygon style="fill:gold;stroke:gold;" points="1026,31 1036,35 1026,37 1026,31"/>
</g>
<!-- struct13 -->
<g id="node15" class="node"><title>struct13</title>
<polyline style="fill:none;stroke:black;" points="1144,77 1179,77 "/>
<path style="fill:none;stroke:black;" d="M1179,77C1185,77 1191,71 1191,65"/>
<polyline style="fill:none;stroke:black;" points="1191,65 1191,17 "/>
<path style="fill:none;stroke:black;" d="M1191,17C1191,11 1185,5 1179,5"/>
<polyline style="fill:none;stroke:black;" points="1179,5 1144,5 "/>
<path style="fill:none;stroke:black;" d="M1144,5C1138,5 1132,11 1132,17"/>
<polyline style="fill:none;stroke:black;" points="1132,17 1132,65 "/>
<path style="fill:none;stroke:black;" d="M1132,65C1132,71 1138,77 1144,77"/>
<text text-anchor="middle" x="1161" y="22">13</text>
<polyline style="fill:none;stroke:black;" points="1132,29 1191,29 "/>
<text text-anchor="middle" x="1161" y="46">P</text>
<polyline style="fill:none;stroke:black;" points="1132,53 1191,53 "/>
<text text-anchor="middle" x="1146" y="70">&#45;1</text>
<polyline style="fill:none;stroke:black;" points="1160,77 1160,53 "/>
<text text-anchor="middle" x="1175" y="70">14</text>
</g>
<!-- struct12&#45;&gt;struct13 -->
<g id="edge14" class="edge"><title>struct12&#45;&gt;struct13</title>
<path style="fill:none;stroke:white;" d="M1105,48C1111,48 1116,48 1122,48"/>
<polygon style="fill:white;stroke:white;" points="1105,51 1095,47 1105,45 1105,51"/>
<polygon style="fill:white;stroke:white;" points="1122,45 1132,47 1122,51 1122,45"/>
</g>
<!-- struct12&#45;&gt;struct13 -->
<g id="edge31" class="edge"><title>struct12&#45;&gt;struct13</title>
<path style="fill:none;stroke:gold;" d="M1095,35C1104,34 1113,34 1122,34"/>
<polygon style="fill:gold;stroke:gold;" points="1122,31 1132,35 1122,37 1122,31"/>
</g>
<!-- struct14 -->
<g id="node16" class="node"><title>struct14</title>
<polyline style="fill:none;stroke:black;" points="1240,77 1275,77 "/>
<path style="fill:none;stroke:black;" d="M1275,77C1281,77 1287,71 1287,65"/>
<polyline style="fill:none;stroke:black;" points="1287,65 1287,17 "/>
<path style="fill:none;stroke:black;" d="M1287,17C1287,11 1281,5 1275,5"/>
<polyline style="fill:none;stroke:black;" points="1275,5 1240,5 "/>
<path style="fill:none;stroke:black;" d="M1240,5C1234,5 1228,11 1228,17"/>
<polyline style="fill:none;stroke:black;" points="1228,17 1228,65 "/>
<path style="fill:none;stroke:black;" d="M1228,65C1228,71 1234,77 1240,77"/>
<text text-anchor="middle" x="1257" y="22">14</text>
<polyline style="fill:none;stroke:black;" points="1228,29 1287,29 "/>
<text text-anchor="middle" x="1257" y="46">P</text>
<polyline style="fill:none;stroke:black;" points="1228,53 1287,53 "/>
<text text-anchor="middle" x="1242" y="70">&#45;1</text>
<polyline style="fill:none;stroke:black;" points="1256,77 1256,53 "/>
<text text-anchor="middle" x="1271" y="70">15</text>
</g>
<!-- struct13&#45;&gt;struct14 -->
<g id="edge15" class="edge"><title>struct13&#45;&gt;struct14</title>
<path style="fill:none;stroke:white;" d="M1201,48C1207,48 1212,48 1218,48"/>
<polygon style="fill:white;stroke:white;" points="1201,51 1191,47 1201,45 1201,51"/>
<polygon style="fill:white;stroke:white;" points="1218,45 1228,47 1218,51 1218,45"/>
</g>
<!-- struct13&#45;&gt;struct14 -->
<g id="edge32" class="edge"><title>struct13&#45;&gt;struct14</title>
<path style="fill:none;stroke:gold;" d="M1191,35C1200,34 1209,34 1218,34"/>
<polygon style="fill:gold;stroke:gold;" points="1218,31 1228,35 1218,37 1218,31"/>
</g>
<!-- struct15 -->
<g id="node17" class="node"><title>struct15</title>
<polyline style="fill:none;stroke:black;" points="1336,77 1371,77 "/>
<path style="fill:none;stroke:black;" d="M1371,77C1377,77 1383,71 1383,65"/>
<polyline style="fill:none;stroke:black;" points="1383,65 1383,17 "/>
<path style="fill:none;stroke:black;" d="M1383,17C1383,11 1377,5 1371,5"/>
<polyline style="fill:none;stroke:black;" points="1371,5 1336,5 "/>
<path style="fill:none;stroke:black;" d="M1336,5C1330,5 1324,11 1324,17"/>
<polyline style="fill:none;stroke:black;" points="1324,17 1324,65 "/>
<path style="fill:none;stroke:black;" d="M1324,65C1324,71 1330,77 1336,77"/>
<text text-anchor="middle" x="1353" y="22">15</text>
<polyline style="fill:none;stroke:black;" points="1324,29 1383,29 "/>
<text text-anchor="middle" x="1353" y="46">P</text>
<polyline style="fill:none;stroke:black;" points="1324,53 1383,53 "/>
<text text-anchor="middle" x="1338" y="70">&#45;1</text>
<polyline style="fill:none;stroke:black;" points="1352,77 1352,53 "/>
<text text-anchor="middle" x="1367" y="70">16</text>
</g>
<!-- struct14&#45;&gt;struct15 -->
<g id="edge16" class="edge"><title>struct14&#45;&gt;struct15</title>
<path style="fill:none;stroke:white;" d="M1297,48C1303,48 1308,48 1314,48"/>
<polygon style="fill:white;stroke:white;" points="1297,51 1287,47 1297,45 1297,51"/>
<polygon style="fill:white;stroke:white;" points="1314,45 1324,47 1314,51 1314,45"/>
</g>
<!-- struct14&#45;&gt;struct15 -->
<g id="edge33" class="edge"><title>struct14&#45;&gt;struct15</title>
<path style="fill:none;stroke:gold;" d="M1287,35C1296,34 1305,34 1314,34"/>
<polygon style="fill:gold;stroke:gold;" points="1314,31 1324,35 1314,37 1314,31"/>
</g>
<!-- struct16 -->
<g id="node18" class="node"><title>struct16</title>
<polyline style="fill:none;stroke:black;" points="1432,77 1467,77 "/>
<path style="fill:none;stroke:black;" d="M1467,77C1473,77 1479,71 1479,65"/>
<polyline style="fill:none;stroke:black;" points="1479,65 1479,17 "/>
<path style="fill:none;stroke:black;" d="M1479,17C1479,11 1473,5 1467,5"/>
<polyline style="fill:none;stroke:black;" points="1467,5 1432,5 "/>
<path style="fill:none;stroke:black;" d="M1432,5C1426,5 1420,11 1420,17"/>
<polyline style="fill:none;stroke:black;" points="1420,17 1420,65 "/>
<path style="fill:none;stroke:black;" d="M1420,65C1420,71 1426,77 1432,77"/>
<text text-anchor="middle" x="1449" y="22">16</text>
<polyline style="fill:none;stroke:black;" points="1420,29 1479,29 "/>
<text text-anchor="middle" x="1449" y="46">P</text>
<polyline style="fill:none;stroke:black;" points="1420,53 1479,53 "/>
<text text-anchor="middle" x="1434" y="70">&#45;1</text>
<polyline style="fill:none;stroke:black;" points="1448,77 1448,53 "/>
<text text-anchor="middle" x="1463" y="70">17</text>
</g>
<!-- struct15&#45;&gt;struct16 -->
<g id="edge17" class="edge"><title>struct15&#45;&gt;struct16</title>
<path style="fill:none;stroke:white;" d="M1393,48C1399,48 1404,48 1410,48"/>
<polygon style="fill:white;stroke:white;" points="1393,51 1383,47 1393,45 1393,51"/>
<polygon style="fill:white;stroke:white;" points="1410,45 1420,47 1410,51 1410,45"/>
</g>
<!-- struct15&#45;&gt;struct16 -->
<g id="edge34" class="edge"><title>struct15&#45;&gt;struct16</title>
<path style="fill:none;stroke:gold;" d="M1383,35C1392,34 1401,34 1410,34"/>
<polygon style="fill:gold;stroke:gold;" points="1410,31 1420,35 1410,37 1410,31"/>
</g>
<!-- struct17 -->
<g id="node19" class="node"><title>struct17</title>
<polyline style="fill:none;stroke:black;" points="1527,77 1555,77 "/>
<path style="fill:none;stroke:black;" d="M1555,77C1561,77 1567,71 1567,65"/>
<polyline style="fill:none;stroke:black;" points="1567,65 1567,17 "/>
<path style="fill:none;stroke:black;" d="M1567,17C1567,11 1561,5 1555,5"/>
<polyline style="fill:none;stroke:black;" points="1555,5 1527,5 "/>
<path style="fill:none;stroke:black;" d="M1527,5C1521,5 1515,11 1515,17"/>
<polyline style="fill:none;stroke:black;" points="1515,17 1515,65 "/>
<path style="fill:none;stroke:black;" d="M1515,65C1515,71 1521,77 1527,77"/>
<text text-anchor="middle" x="1541" y="22">17</text>
<polyline style="fill:none;stroke:black;" points="1515,29 1567,29 "/>
<text text-anchor="middle" x="1541" y="46">P</text>
<polyline style="fill:none;stroke:black;" points="1515,53 1567,53 "/>
<text text-anchor="middle" x="1529" y="70">&#45;1</text>
<polyline style="fill:none;stroke:black;" points="1543,77 1543,53 "/>
<text text-anchor="middle" x="1555" y="70">0</text>
</g>
<!-- struct16&#45;&gt;struct17 -->
<g id="edge18" class="edge"><title>struct16&#45;&gt;struct17</title>
<path style="fill:none;stroke:white;" d="M1489,48C1494,48 1500,48 1505,48"/>
<polygon style="fill:white;stroke:white;" points="1489,51 1479,47 1489,45 1489,51"/>
<polygon style="fill:white;stroke:white;" points="1505,45 1515,47 1505,51 1505,45"/>
</g>
<!-- struct16&#45;&gt;struct17 -->
<g id="edge35" class="edge"><title>struct16&#45;&gt;struct17</title>
<path style="fill:none;stroke:gold;" d="M1479,35C1487,34 1496,34 1505,34"/>
<polygon style="fill:gold;stroke:gold;" points="1505,31 1515,35 1505,37 1505,31"/>
</g>
<!-- struct17&#45;&gt;struct0 -->
<g id="edge36" class="edge"><title>struct17&#45;&gt;struct0</title>
<path style="fill:none;stroke:gold;" d="M1515,65C1504,73 1492,81 1479,86 1427,108 1410,105 1353,105 197,105 197,105 197,105 150,105 97,93 63,84"/>
<polygon style="fill:gold;stroke:gold;" points="62,87 53,81 64,81 62,87"/>
</g>
</g>
</svg>
